<svg width="20" height="20" viewBox="0 0 20 20" fill="none" xmlns="http://www.w3.org/2000/svg">
<path d="M10 0.500021L16.875 0.500004L19.1406 0.500015L19.5 0.500017V19.5H19.4956H19.4855H19.4753H19.465H19.4547H19.4442H19.4337H19.423H19.4123H19.4014H19.3905H19.3795H19.3684H19.3572H19.3459H19.3346H19.3231H19.3116H19.2999H19.2882H19.2764H19.2645H19.2525H19.2404H19.2282H19.216H19.2036H19.1912H19.1787H19.1661H19.1534H19.1406H19.1278H19.1148H19.1018H19.0887H19.0755H19.0622H19.0488H19.0354H19.0218H19.0082H18.9945H18.9807H18.9668H18.9529H18.9388H18.9247H18.9105H18.8962H18.8819H18.8674H18.8529H18.8383H18.8236H18.8088H18.794H18.779H18.764H18.7489H18.7337H18.7185H18.7032H18.6877H18.6723H18.6567H18.641H18.6253H18.6095H18.5936H18.5777H18.5616H18.5455H18.5294H18.5131H18.4967H18.4803H18.4638H18.4473H18.4306H18.4139H18.3971H18.3803H18.3633H18.3463H18.3292H18.312H18.2948H18.2775H18.2601H18.2427H18.2251H18.2075H18.1899H18.1721H18.1543H18.1364H18.1184H18.1004H18.0823H18.0641H18.0459H18.0276H18.0092H17.9908H17.9722H17.9536H17.935H17.9162H17.8975H17.8786H17.8596H17.8406H17.8216H17.8024H17.7832H17.764H17.7446H17.7252H17.7057H17.6862H17.6666H17.6469H17.6272H17.6074H17.5875H17.5676H17.5476H17.5275H17.5074H17.4872H17.467H17.4467H17.4263H17.4059H17.3853H17.3648H17.3442H17.3235H17.3027H17.2819H17.261H17.2401H17.2191H17.198H17.1769H17.1557H17.1345H17.1132H17.0918H17.0704H17.0489H17.0274H17.0058H16.9841H16.9624H16.9407H16.9188H16.8969H16.875H16.853H16.8309H16.8088H16.7867H16.7644H16.7421H16.7198H16.6974H16.675H16.6525H16.6299H16.6073H16.5846H16.5619H16.5391H16.5163H16.4934H16.4704H16.4474H16.4244H16.4013H16.3782H16.3549H16.3317H16.3084H16.285H16.2616H16.2382H16.2146H16.1911H16.1675H16.1438H16.1201H16.0963H16.0725H16.0486H16.0247H16.0008H15.9768H15.9527H15.9286H15.9044H15.8802H15.856H15.8317H15.8073H15.783H15.7585H15.734H15.7095H15.6849H15.6603H15.6356H15.6109H15.5862H15.5614H15.5365H15.5116H15.4867H15.4617H15.4367H15.4116H15.3865H15.3613H15.3361H15.3109H15.2856H15.2603H15.2349H15.2095H15.1841H15.1586H15.133H15.1074H15.0818H15.0562H15.0305H15.0047H14.979H14.9532H14.9273H14.9014H14.8755H14.8495H14.8235H14.7974H14.7714H14.7452H14.7191H14.6929H14.6666H14.6404H14.6141H14.5877H14.5613H14.5349H14.5085H14.482H14.4554H14.4289H14.4023H14.3757H14.349H14.3223H14.2956H14.2688H14.242H14.2152H14.1883H14.1614H14.1345H14.1075H14.0805H14.0535H14.0264H13.9993H13.9722H13.9451H13.9179H13.8907H13.8634H13.8361H13.8088H13.7815H13.7541H13.7267H13.6993H13.6719H13.6444H13.6169H13.5893H13.5618H13.5342H13.5066H13.4789H13.4513H13.4236H13.3958H13.3681H13.3403H13.3125H13.2847H13.2568H13.2289H13.201H13.1731H13.1451H13.1171H13.0891H13.0611H13.033H13.005H12.9769H12.9487H12.9206H12.8924H12.8642H12.836H12.8078H12.7795H12.7513H12.723H12.6946H12.6663H12.6379H12.6096H12.5812H12.5527H12.5243H12.4958H12.4674H12.4389H12.4103H12.3818H12.3532H12.3247H12.2961H12.2675H12.2389H12.2102H12.1816H12.1529H12.1242H12.0955H12.0667H12.038H12.0092H11.9805H11.9517H11.9229H11.8941H11.8652H11.8364H11.8075H11.7787H11.7498H11.7209H11.6919H11.663H11.6341H11.6051H11.5762H11.5472H11.5182H11.4892H11.4602H11.4312H11.4021H11.3731H11.344H11.315H11.2859H11.2568H11.2277H11.1986H11.1695H11.1404H11.1112H11.0821H11.0529H11.0238H10.9946H10.9655H10.9363H10.9071H10.8779H10.8487H10.8195H10.7903H10.7611H10.7318H10.7026H10.6734H10.6441H10.6149H10.5856H10.5564H10.5271H10.4979H10.4686H10.4393H10.4101H10.3808H10.3515H10.3222H10.2929H10.2636H10.2344H10.2051H10.1758H10.1465H10.1172H10.0879H10.0586H10.0293H10C7.66262 19.5 5.28338 18.3263 3.47855 16.5215C1.67373 14.7166 0.5 12.3374 0.5 10C0.5 7.66264 1.67373 5.28341 3.47855 3.47859C5.28338 1.67377 7.66262 0.500043 10 0.500021Z" fill="#3FDD25" stroke="#969696"/>
</svg>
