<svg width="30" height="31" viewBox="0 0 30 31" fill="none" xmlns="http://www.w3.org/2000/svg">
<g clip-path="url(#clip0_354_916)">
<path d="M24.2812 14.0869C24.1875 12.6807 23.7188 11.3682 23.0625 10.1494C22.2188 8.55566 22.5 6.49316 23.8125 5.18066C22.2187 3.58691 19.7812 3.58691 18.1875 5.18066C18.0937 5.27441 18 5.36816 17.9063 5.46191C16.7813 4.99316 15.4688 4.71191 14.0625 4.71191C10.5937 4.71191 7.5 6.39941 5.625 9.02441C4.40625 10.7119 3.75 12.7744 3.75 15.0244C3.75 16.8994 4.3125 18.7744 5.15625 20.2744L9.375 27.2119H13.125L12.8437 25.2432C13.2187 25.3369 13.5938 25.3369 14.0625 25.3369C14.8125 25.3369 15.5625 25.3369 16.2187 25.2432L15.9375 27.2119H19.6875L21.75 24.1182C24 23.2744 25.9688 22.1494 27.1875 20.7432V14.0869H24.2812Z" stroke="#6ABACF" stroke-width="2" stroke-miterlimit="10" stroke-linecap="round" stroke-linejoin="round"/>
<path d="M5.3125 20.9307C5.21875 21.5869 4.65625 22.0557 3.90625 22.0557C3.15625 22.0557 2.5 21.3994 2.5 20.6494" stroke="#6ABACF" stroke-width="2" stroke-miterlimit="10" stroke-linecap="round" stroke-linejoin="round"/>
<path d="M8.53125 10.5244C10.125 8.64941 12.375 7.52441 15 7.52441" stroke="#6ABACF" stroke-width="2" stroke-miterlimit="10" stroke-linecap="round" stroke-linejoin="round"/>
</g>
<defs>
<clipPath id="clip0_354_916">
<rect width="30" height="30" fill="white" transform="translate(0 0.0244141)"/>
</clipPath>
</defs>
</svg>
