<svg width="50" height="50" viewBox="0 0 50 50" fill="none" xmlns="http://www.w3.org/2000/svg">
<path d="M23.6466 13.0859C22.9166 14.5833 22.9321 12.3954 22.9166 12.2397C22.552 8.59379 24.6831 5.86452 30.1757 4.19921C35.2494 3.52213 37.2395 4.68743 38.5416 8.59371C40.6249 13.8021 36.7187 16.6667 30.7291 15.1042C28.6512 14.5621 27.6041 13.8021 25.9765 13.0859C24.9999 12.5 24.1463 12.0609 23.6466 13.0859Z" fill="#FF9B3F"/>
<path d="M27.8321 33.7891C32.8012 32.0182 34.3963 28.4049 32.6173 22.9492C32.0851 21.2353 29.4809 19.7054 24.8048 18.3594C21.9728 17.2364 21.6798 15.3646 21.6798 11.9141C21.6798 8.0067 22.6564 6.77081 27.3439 4.42706C28.9064 3.99924 30.4038 2.71319 27.3439 3.12497C20.5774 3.74131 16.1829 5.79211 14.5509 9.86327C13.34 14.1906 15.8139 18.5525 21.9728 22.9492C23.6635 24.0267 25.2585 23.9291 26.3022 23.9584C29.5073 24.1105 30.7293 25.2604 31.7384 26.7578C31.7709 27.3438 31.6277 27.3633 31.3478 27.6367C29.0398 30.1302 27.7377 31.8229 27.4415 32.7148C26.823 34.1146 26.8814 34.1457 27.4415 33.8867L27.8321 33.7891Z" fill="#FF9B3F"/>
<path fill-rule="evenodd" clip-rule="evenodd" d="M33.5938 22.2657C35.8041 29.0952 33.7858 33.3269 27.5391 34.9611C23.6198 35.8161 20.7878 35.7184 19.043 34.6681C18.4657 34.3946 17.8798 33.9064 17.2852 33.2032C16.6211 32.4306 16.4063 32.8126 16.3086 33.0079C15.9266 34.2102 15.5686 34.8612 15.2344 34.9611C14.0495 35.4472 13.3008 36.3586 12.9883 37.6954C12.8321 38.1685 12.5 38.5418 12.2396 38.8022C11.849 39.3556 11.7188 39.5834 12.1094 39.9415C13.4505 40.8356 15.5664 41.1937 18.4571 41.0157C20.0765 40.7309 21.7367 40.8286 23.4375 41.3087C31.3216 42.6173 36.4974 41.2176 38.9649 37.1095C41.4128 33.2098 41.5104 29.5639 39.2578 26.172C38.2054 24.6687 36.9792 23.572 35.6446 22.754C34.6354 22.1355 33.3334 21.8751 33.5938 22.2657ZM15.4297 36.3282C14.4639 36.0294 13.4825 37.6832 14.8535 37.6832C15.7551 37.7959 16.2928 36.6725 15.4297 36.3282Z" fill="#FF9B3F"/>
<path d="M24.4141 42.3829C26.001 42.8126 27.4333 42.9428 28.7109 42.7735C29.9886 42.6043 29.891 42.8647 28.418 43.5548C26.8962 44.3019 25.6917 44.5948 24.8047 44.4337C23.6019 44.4239 21.486 44.4565 18.457 44.5314C18.0941 44.253 18.0941 43.9275 18.457 43.5548C18.9893 42.7882 19.8031 42.5929 20.8984 42.9689C21.8457 43.309 22.7246 43.1788 23.5352 42.5782C23.7451 42.3487 24.0381 42.2836 24.4141 42.3829Z" fill="#FF9B3F"/>
<path d="M29.6875 43.2598C30.3216 43.1552 30.8424 42.9714 31.25 42.7083V44.2708H29.6875V43.2598Z" fill="#0F4D92"/>
<path d="M23.9583 45.3125V48.4375L25.5208 48.4375V45.8333C24.9999 45.8333 24.7395 45.3125 23.9583 45.3125Z" fill="#0F4D92"/>
<path d="M29.1665 2.08331H30.729V19.2708C30.5021 18.9375 29.9812 18.5484 29.1665 18.4896V2.08331Z" fill="#0F4D92"/>
<path d="M23.9583 6.25V15.8737C23.9583 16.662 24.6651 17.1875 25.5208 17.1875V6.25H23.9583Z" fill="#0F4D92"/>
<path d="M29.6875 28.6458C30.2118 27.6999 30.7326 27.1539 31.25 26.8229C30.6024 26.1206 30.0816 26.1458 29.6875 26.0416V28.6458Z" fill="#0F4D92"/>
<path d="M23.9583 25V34.375C24.3638 34.2415 24.8846 34.1113 25.5208 33.9844V25.3487C24.9962 25.3942 24.5535 25.2604 23.9583 25Z" fill="#0F4D92"/>
</svg>
