<svg width="96" height="96" viewBox="0 0 96 96" fill="none" xmlns="http://www.w3.org/2000/svg">
<path d="M45.4017 25.125C44 28 44.0299 23.7992 44 23.5002C43.3 16.5001 47.3917 11.2599 57.9375 8.0625C67.6791 6.7625 71.5 8.99988 74 16.4999C78 26.5 70.5 32 59 29C55.0104 27.9592 53 26.5 49.875 25.125C48 24 46.3611 23.157 45.4017 25.125Z" fill="#FFFBF8"/>
<path d="M53.4375 64.875C62.9781 61.475 66.0406 54.5375 62.625 44.0625C61.6031 40.7719 56.6031 37.8344 47.625 35.25C42.1875 33.0938 41.625 29.5 41.625 22.875C41.625 15.3729 43.5 13 52.5 8.49996C55.5 7.67855 58.375 5.20933 52.5 5.99996C39.5084 7.18333 31.0709 11.1209 27.9375 18.9375C25.6125 27.2459 30.3625 35.6209 42.1875 44.0625C45.4336 46.1313 48.4961 45.9438 50.5 46.0001C56.6539 46.2922 59 48.5001 60.9375 51.375C61 52.5001 60.725 52.5375 60.1875 53.0625C55.7563 57.85 53.2563 61.1 52.6875 62.8125C51.5 65.5001 51.6121 65.5598 52.6875 65.0625L53.4375 64.875Z" fill="#FFFBF8"/>
<path fill-rule="evenodd" clip-rule="evenodd" d="M64.5 42.7502C68.7438 55.8627 64.8688 63.9877 52.875 67.1252C45.35 68.7669 39.9125 68.5794 36.5625 66.5627C35.4541 66.0377 34.3291 65.1002 33.1875 63.7502C31.9125 62.2669 31.5 63.0002 31.3125 63.3752C30.5791 65.6836 29.8916 66.9336 29.25 67.1252C26.975 68.0586 25.5375 69.8086 24.9375 72.3752C24.6375 73.2836 24 74.0002 23.5 74.5002C22.75 75.5627 22.5 76.0002 23.25 76.6878C25.825 78.4044 29.8875 79.0919 35.4375 78.7503C38.5469 78.2034 41.7344 78.3909 45 79.3128C60.1375 81.8253 70.075 79.1377 74.8125 71.2502C79.5125 63.7627 79.7 56.7627 75.375 50.2502C73.3543 47.3639 71 45.2583 68.4375 43.6877C66.5 42.5003 64 42.0002 64.5 42.7502ZM29.625 69.7502C27.7706 69.1765 25.8864 72.3518 28.5188 72.3518C30.2498 72.5682 31.2821 70.4112 29.625 69.7502Z" fill="#FFFBF8"/>
<path d="M46.875 81.3753C49.9219 82.2003 52.6719 82.4503 55.125 82.1253C57.5781 81.8003 57.3906 82.3003 54.5625 83.6253C51.6406 85.0596 49.3281 85.6221 47.625 85.3128C45.3156 85.294 41.2531 85.3565 35.4375 85.5003C34.7406 84.9659 34.7406 84.3409 35.4375 83.6253C36.4594 82.1534 38.0219 81.7784 40.125 82.5003C41.9437 83.1534 43.6312 82.9034 45.1875 81.7503C45.5906 81.3096 46.1531 81.1846 46.875 81.3753Z" fill="#FFFBF8"/>
<path d="M57 83.0588C58.2174 82.8581 59.2174 82.5052 60 82V85H57V83.0588Z" fill="#0F4D92"/>
<path d="M46 87V93L49 93V88C48 88 47.5 87 46 87Z" fill="#0F4D92"/>
<path d="M56 4H59V37C58.5643 36.3601 57.5643 35.6129 56 35.5V4Z" fill="#0F4D92"/>
<path d="M46 12V30.4775C46 31.991 47.3571 33 49 33V12H46Z" fill="#0F4D92"/>
<path d="M57 55C58.0067 53.1839 59.0067 52.1355 60 51.5C58.7567 50.1516 57.7567 50.2 57 50V55Z" fill="#0F4D92"/>
<path d="M46 48V66C46.7786 65.7437 47.7786 65.4937 49 65.25V48.6694C47.9929 48.7569 47.1429 48.5 46 48Z" fill="#0F4D92"/>
</svg>
