<svg width="24" height="25" viewBox="0 0 24 25" fill="none" xmlns="http://www.w3.org/2000/svg">
<path d="M12 0.0244141C9.62663 0.0244141 7.30655 0.728202 5.33316 2.04678C3.35977 3.36536 1.8217 5.2395 0.913451 7.43221C0.00519941 9.62492 -0.232441 12.0377 0.230582 14.3655C0.693605 16.6933 1.83649 18.8315 3.51472 20.5097C5.19295 22.1879 7.33115 23.3308 9.65892 23.7938C11.9867 24.2569 14.3995 24.0192 16.5922 23.111C18.7849 22.2027 20.6591 20.6646 21.9776 18.6913C23.2962 16.7179 24 14.3978 24 12.0244C24 10.4486 23.6896 8.88812 23.0866 7.43221C22.4835 5.9763 21.5996 4.65343 20.4853 3.53913C19.371 2.42483 18.0481 1.54092 16.5922 0.93786C15.1363 0.334803 13.5759 0.0244141 12 0.0244141ZM19.092 10.8244C18.9192 9.75895 18.5091 8.74597 17.892 7.86041L19.572 6.14441C20.6275 7.50213 21.2989 9.11845 21.516 10.8244H19.092ZM12 16.8244C11.0507 16.8244 10.1226 16.5429 9.33327 16.0155C8.54391 15.488 7.92868 14.7384 7.56538 13.8613C7.20208 12.9842 7.10703 12.0191 7.29223 11.088C7.47744 10.1569 7.9346 9.30159 8.60589 8.6303C9.27718 7.95901 10.1325 7.50185 11.0636 7.31664C11.9947 7.13143 12.9598 7.22649 13.8369 7.58979C14.714 7.95309 15.4636 8.56832 15.9911 9.35768C16.5185 10.147 16.8 11.0751 16.8 12.0244C16.8 13.2975 16.2943 14.5183 15.3941 15.4185C14.4939 16.3187 13.273 16.8244 12 16.8244ZM2.40001 12.0244C2.40309 10.2302 2.90895 8.47268 3.8602 6.95134C4.81145 5.43001 6.17001 4.2057 7.78177 3.41731C9.39354 2.62892 11.194 2.308 12.9789 2.49096C14.7638 2.67392 16.4617 3.35343 17.88 4.45241L16.164 6.15641C15.2822 5.52586 14.2694 5.10256 13.2011 4.9181C12.1329 4.73364 11.0368 4.79279 9.99456 5.09113C8.95236 5.38946 7.99098 5.91929 7.18215 6.64108C6.37331 7.36286 5.73791 8.25797 5.32333 9.25963C4.90876 10.2613 4.72572 11.3436 4.78787 12.4259C4.85002 13.5082 5.15576 14.5625 5.68228 15.5101C6.2088 16.4577 6.9425 17.2742 7.82864 17.8986C8.71479 18.5231 9.7305 18.9393 10.8 19.1164V21.5164C8.48567 21.2248 6.35667 20.1006 4.8108 18.3538C3.26493 16.6069 2.40795 14.357 2.40001 12.0244ZM13.2 21.5404V19.1404C14.6751 18.8889 16.0352 18.1839 17.0911 17.1237C18.1471 16.0634 18.8464 14.7005 19.092 13.2244H21.492C21.2253 15.3329 20.2665 17.2933 18.7659 18.7982C17.2653 20.3032 15.3077 21.2676 13.2 21.5404Z" fill="#6ABACF"/>
</svg>
