<svg width="38" height="35" viewBox="0 0 38 35" fill="none" xmlns="http://www.w3.org/2000/svg">
<g clip-path="url(#clip0_354_908)" filter="url(#filter0_d_354_908)">
<path d="M32.125 3.77441H9.625C9.12772 3.77441 8.65081 3.97196 8.29917 4.32359C7.94754 4.67522 7.75 5.15213 7.75 5.64941V7.52441H5.875C5.37772 7.52441 4.90081 7.72196 4.54917 8.07359C4.19754 8.42522 4 8.90213 4 9.39941V24.3994C4 24.8967 4.19754 25.3736 4.54917 25.7252C4.90081 26.0769 5.37772 26.2744 5.875 26.2744H28.375C28.8723 26.2744 29.3492 26.0769 29.7008 25.7252C30.0525 25.3736 30.25 24.8967 30.25 24.3994V22.5244H32.125C32.6223 22.5244 33.0992 22.3269 33.4508 21.9752C33.8025 21.6236 34 21.1467 34 20.6494V5.64941C34 5.15213 33.8025 4.67522 33.4508 4.32359C33.0992 3.97196 32.6223 3.77441 32.125 3.77441V3.77441ZM28.375 24.3994H5.875V9.39941H28.375V24.3994ZM32.125 20.6494H30.25V9.39941C30.25 8.90213 30.0525 8.42522 29.7008 8.07359C29.3492 7.72196 28.8723 7.52441 28.375 7.52441H9.625V5.64941H32.125V20.6494Z" fill="#6ABACF"/>
<path d="M17.125 22.5244C18.2375 22.5244 19.3251 22.1945 20.2501 21.5764C21.1751 20.9583 21.8961 20.0798 22.3218 19.052C22.7476 18.0242 22.859 16.8932 22.6419 15.802C22.4249 14.7109 21.8891 13.7086 21.1025 12.9219C20.3158 12.1353 19.3135 11.5995 18.2224 11.3825C17.1312 11.1655 16.0002 11.2769 14.9724 11.7026C13.9446 12.1283 13.0661 12.8493 12.448 13.7743C11.8299 14.6994 11.5 15.7869 11.5 16.8994C11.5 18.3913 12.0926 19.822 13.1475 20.8769C14.2024 21.9318 15.6332 22.5244 17.125 22.5244V22.5244ZM17.125 13.1494C17.8667 13.1494 18.5917 13.3694 19.2084 13.7814C19.8251 14.1935 20.3057 14.7791 20.5895 15.4644C20.8734 16.1496 20.9476 16.9036 20.8029 17.631C20.6582 18.3584 20.3011 19.0266 19.7766 19.5511C19.2522 20.0755 18.584 20.4327 17.8566 20.5774C17.1292 20.7221 16.3752 20.6478 15.6899 20.364C15.0047 20.0801 14.419 19.5995 14.007 18.9828C13.5949 18.3661 13.375 17.6411 13.375 16.8994C13.375 15.9049 13.7701 14.951 14.4733 14.2478C15.1766 13.5445 16.1304 13.1494 17.125 13.1494V13.1494Z" fill="#6ABACF"/>
<path d="M26.5 15.9619H24.625V17.8369H26.5V15.9619Z" fill="#6ABACF"/>
<path d="M9.625 15.9619H7.75V17.8369H9.625V15.9619Z" fill="#6ABACF"/>
</g>
<defs>
<filter id="filter0_d_354_908" x="0" y="0.0244141" width="38" height="38" filterUnits="userSpaceOnUse" color-interpolation-filters="sRGB">
<feFlood flood-opacity="0" result="BackgroundImageFix"/>
<feColorMatrix in="SourceAlpha" type="matrix" values="0 0 0 0 0 0 0 0 0 0 0 0 0 0 0 0 0 0 127 0" result="hardAlpha"/>
<feOffset dy="4"/>
<feGaussianBlur stdDeviation="2"/>
<feComposite in2="hardAlpha" operator="out"/>
<feColorMatrix type="matrix" values="0 0 0 0 0 0 0 0 0 0 0 0 0 0 0 0 0 0 0.25 0"/>
<feBlend mode="normal" in2="BackgroundImageFix" result="effect1_dropShadow_354_908"/>
<feBlend mode="normal" in="SourceGraphic" in2="effect1_dropShadow_354_908" result="shape"/>
</filter>
<clipPath id="clip0_354_908">
<rect width="30" height="30" fill="white" transform="translate(4 0.0244141)"/>
</clipPath>
</defs>
</svg>
