<svg width="280" height="29" viewBox="0 0 280 29" fill="none" xmlns="http://www.w3.org/2000/svg">
<path d="M0 15H100" stroke="#4B4B4B" stroke-width="2"/>
<path d="M180 15H280" stroke="#4B4B4B" stroke-width="2"/>
<path d="M117.669 23H115.453L121.863 5.54545H124.044L130.453 23H128.238L123.022 8.30682H122.885L117.669 23ZM118.488 16.1818H127.419V18.0568H118.488V16.1818ZM133.172 23V5.54545H143.706V7.42045H135.286V12.875H139.718C140.968 12.875 142.022 13.0795 142.88 13.4886C143.743 13.8977 144.397 14.4744 144.84 15.2188C145.289 15.9631 145.513 16.8409 145.513 17.8523C145.513 18.8636 145.289 19.7557 144.84 20.5284C144.397 21.3011 143.743 21.9062 142.88 22.3438C142.022 22.7812 140.968 23 139.718 23H133.172ZM135.286 21.1591H139.718C140.513 21.1591 141.186 21 141.738 20.6818C142.294 20.358 142.715 19.9432 142.999 19.4375C143.289 18.9261 143.434 18.3864 143.434 17.8182C143.434 16.983 143.113 16.2642 142.471 15.6619C141.828 15.054 140.911 14.75 139.718 14.75H135.286V21.1591ZM163.72 14.2727C163.72 16.1136 163.387 17.7045 162.723 19.0455C162.058 20.3864 161.146 21.4205 159.987 22.1477C158.828 22.875 157.504 23.2386 156.015 23.2386C154.527 23.2386 153.203 22.875 152.044 22.1477C150.885 21.4205 149.973 20.3864 149.308 19.0455C148.643 17.7045 148.311 16.1136 148.311 14.2727C148.311 12.4318 148.643 10.8409 149.308 9.5C149.973 8.15909 150.885 7.125 152.044 6.39773C153.203 5.67045 154.527 5.30682 156.015 5.30682C157.504 5.30682 158.828 5.67045 159.987 6.39773C161.146 7.125 162.058 8.15909 162.723 9.5C163.387 10.8409 163.72 12.4318 163.72 14.2727ZM161.674 14.2727C161.674 12.7614 161.422 11.4858 160.916 10.446C160.416 9.40625 159.737 8.61932 158.879 8.08523C158.027 7.55114 157.072 7.28409 156.015 7.28409C154.958 7.28409 154.001 7.55114 153.143 8.08523C152.291 8.61932 151.612 9.40625 151.106 10.446C150.606 11.4858 150.356 12.7614 150.356 14.2727C150.356 15.7841 150.606 17.0597 151.106 18.0994C151.612 19.1392 152.291 19.9261 153.143 20.4602C154.001 20.9943 154.958 21.2614 156.015 21.2614C157.072 21.2614 158.027 20.9943 158.879 20.4602C159.737 19.9261 160.416 19.1392 160.916 18.0994C161.422 17.0597 161.674 15.7841 161.674 14.2727Z" fill="#4B4B4B"/>
</svg>
