<svg width="121" height="40" viewBox="0 0 121 40" fill="none" xmlns="http://www.w3.org/2000/svg">
<path d="M47.142 18.274V35.538H45.01V28.258C44.23 29.0033 43.5107 29.5233 42.852 29.818C42.2107 30.1127 41.552 30.26 40.876 30.26C39.524 30.26 38.484 29.74 37.756 28.7C37.028 27.66 36.664 26.204 36.664 24.332V22.824C36.664 21.004 37.1147 19.5567 38.016 18.482C38.9347 17.4073 40.2607 16.87 41.994 16.87C43.6927 16.87 45.4087 17.338 47.142 18.274ZM38.874 24.332C38.874 25.684 39.082 26.6807 39.498 27.322C39.914 27.946 40.5467 28.258 41.396 28.258C41.8987 28.258 42.4187 28.128 42.956 27.868C43.4933 27.608 44.178 27.0793 45.01 26.282V19.47C43.9873 19.0367 43.0253 18.82 42.124 18.82C40.9627 18.82 40.1307 19.1753 39.628 19.886C39.1253 20.5967 38.874 21.576 38.874 22.824V24.332ZM59.5891 30V28.18C58.6878 28.96 57.8818 29.506 57.1711 29.818C56.4604 30.1127 55.7498 30.26 55.0391 30.26C53.8951 30.26 53.0198 29.8873 52.4131 29.142C51.8064 28.3793 51.5031 27.3133 51.5031 25.944V17.13H53.6351V25.632C53.6351 26.5333 53.7911 27.2007 54.1031 27.634C54.4324 28.05 54.9178 28.258 55.5591 28.258C56.0444 28.258 56.5904 28.1367 57.1971 27.894C57.8038 27.6513 58.5578 27.166 59.4591 26.438V17.13H61.5911V30H59.5891ZM68.4445 13.984H66.0525V11.592H68.4445V13.984ZM68.3145 30H66.1825V17.13H68.3145V30ZM79.671 19.002C78.891 19.002 78.1284 19.1407 77.383 19.418C76.655 19.6953 75.875 20.224 75.043 21.004V30H72.911V17.13H74.939V19.21C75.823 18.3433 76.629 17.7367 77.357 17.39C78.1024 17.0433 78.8737 16.87 79.671 16.87V19.002ZM89.2179 19.002C88.4379 19.002 87.6753 19.1407 86.9299 19.418C86.2019 19.6953 85.4219 20.224 84.5899 21.004V30H82.4579V17.13H84.4859V19.21C85.3699 18.3433 86.1759 17.7367 86.9039 17.39C87.6493 17.0433 88.4206 16.87 89.2179 16.87V19.002ZM101.339 29.246C100.559 29.6273 99.7788 29.8873 98.9988 30.026C98.2188 30.182 97.4995 30.26 96.8408 30.26C94.9861 30.26 93.5995 29.7313 92.6808 28.674C91.7795 27.6167 91.3288 26.1693 91.3288 24.332V22.772C91.3288 20.9867 91.7795 19.5567 92.6808 18.482C93.5995 17.4073 94.8908 16.87 96.5548 16.87C97.4388 16.87 98.2448 17.052 98.9728 17.416C99.7181 17.7627 100.307 18.3 100.741 19.028C101.191 19.7387 101.417 20.6573 101.417 21.784C101.417 22.512 101.313 23.344 101.105 24.28H93.4348V24.332C93.4348 25.6493 93.7035 26.646 94.2408 27.322C94.7955 27.998 95.6795 28.336 96.8928 28.336C97.4475 28.336 98.0541 28.2667 98.7128 28.128C99.3888 27.9893 100.047 27.7727 100.689 27.478L101.339 29.246ZM96.5548 18.742C95.5495 18.742 94.7868 19.0713 94.2668 19.73C93.7641 20.3713 93.4868 21.2813 93.4348 22.46H99.2588C99.3108 22.148 99.3368 21.8533 99.3368 21.576C99.3368 20.6053 99.0595 19.8947 98.5048 19.444C97.9675 18.976 97.3175 18.742 96.5548 18.742ZM105.08 26.88V10.76H107.212V26.776C107.212 27.244 107.282 27.5993 107.42 27.842C107.576 28.0673 107.88 28.18 108.33 28.18H108.746V30.13H108.148C107.004 30.13 106.207 29.8267 105.756 29.22C105.306 28.6133 105.08 27.8333 105.08 26.88Z" fill="#F9F9F9"/>
<path d="M18.9174 10.4687C18.3333 11.6667 18.3458 9.91634 18.3333 9.79173C18.0417 6.87503 19.7466 4.69162 24.1406 3.35937C28.1996 2.81771 29.7917 3.74995 30.8333 6.87497C32.5 11.0417 29.375 13.3333 24.5833 12.0833C22.921 11.6497 22.0833 11.0417 20.7812 10.4687C20 10 19.3171 9.64874 18.9174 10.4687Z" fill="#F9F9F9"/>
<path d="M22.2656 27.0313C26.2409 25.6146 27.5169 22.724 26.0937 18.3594C25.668 16.9883 23.5846 15.7643 19.8437 14.6875C17.5781 13.7891 17.3437 12.2917 17.3437 9.53125C17.3437 6.40537 18.125 5.41665 21.875 3.54165C23.125 3.1994 24.3229 2.17055 21.875 2.49998C16.4618 2.99305 12.9462 4.6337 11.6406 7.89062C10.6719 11.3524 12.651 14.842 17.5781 18.3594C18.9307 19.2214 20.2067 19.1433 21.0417 19.1667C23.6058 19.2884 24.5833 20.2084 25.3906 21.4063C25.4167 21.875 25.3021 21.8906 25.0781 22.1094C23.2318 24.1042 22.1901 25.4583 21.9531 26.1719C21.4583 27.2917 21.5051 27.3166 21.9531 27.1094L22.2656 27.0313Z" fill="#F9F9F9"/>
<path fill-rule="evenodd" clip-rule="evenodd" d="M26.875 17.8126C28.6432 23.2761 27.0286 26.6616 22.0312 27.9689C18.8958 28.6529 16.6302 28.5747 15.2344 27.7345C14.7726 27.5157 14.3038 27.1251 13.8281 26.5626C13.2969 25.9445 13.125 26.2501 13.0469 26.4064C12.7413 27.3682 12.4548 27.889 12.1875 27.9689C11.2396 28.3578 10.6406 29.0869 10.3906 30.1564C10.2656 30.5348 10 30.8334 9.79167 31.0418C9.47917 31.4845 9.375 31.6668 9.6875 31.9532C10.7604 32.6685 12.4531 32.9549 14.7656 32.8126C16.0612 32.5847 17.3893 32.6629 18.75 33.047C25.0573 34.0939 29.1979 32.9741 31.1719 29.6876C33.1302 26.5678 33.2083 23.6511 31.4063 20.9376C30.5643 19.7349 29.5833 18.8576 28.5156 18.2032C27.7083 17.7084 26.6667 17.5001 26.875 17.8126ZM12.3437 29.0626C11.5711 28.8235 10.786 30.1466 11.8828 30.1466C12.6041 30.2367 13.0342 29.338 12.3437 29.0626Z" fill="#F9F9F9"/>
<path d="M19.5312 33.9064C20.8008 34.2501 21.9466 34.3543 22.9687 34.2189C23.9909 34.0834 23.9128 34.2918 22.7344 34.8439C21.5169 35.4415 20.5534 35.6759 19.8437 35.547C18.8815 35.5392 17.1888 35.5652 14.7656 35.6251C14.4753 35.4024 14.4753 35.142 14.7656 34.8439C15.1914 34.2306 15.8424 34.0743 16.7188 34.3751C17.4766 34.6472 18.1797 34.5431 18.8281 34.0626C18.9961 33.879 19.2305 33.8269 19.5312 33.9064Z" fill="#F9F9F9"/>
<path d="M23.75 34.6078C24.2573 34.5242 24.6739 34.3772 25 34.1667V35.4167H23.75V34.6078Z" fill="#0F4D92"/>
<path d="M19.1667 36.25V38.75L20.4167 38.75V36.6667C20 36.6667 19.7917 36.25 19.1667 36.25Z" fill="#0F4D92"/>
    <path d="M23.3333 1.66667H24.5833V15.4167C24.4018 15.15 23.9851 14.8387 23.3333 14.7917V1.66667Z" fill="#0F4D92"/>
<path d="M19.1667 5V12.6989C19.1667 13.3296 19.7321 13.75 20.4167 13.75V5H19.1667Z" fill="#0F4D92"/>
<path d="M23.75 22.9167C24.1694 22.1599 24.5861 21.7231 25 21.4583C24.4819 20.8965 24.0653 20.9167 23.75 20.8333V22.9167Z" fill="#0F4D92"/>
<path d="M19.1667 20V27.5C19.4911 27.3932 19.9077 27.2891 20.4167 27.1875V20.2789C19.997 20.3154 19.6429 20.2083 19.1667 20Z" fill="#0F4D92"/>
</svg>
